
        <svg xmlns="http://www.w3.org/2000/svg" xmlns:xlink="http://www.w3.org/1999/xlink" version="1.1" width="3153.963520355087" 
        height="706.035840801195" viewBox="0 0 3153.963520355087 706.035840801195">
			
			<g transform="scale(7.698176017754352) translate(10, 10)">
				<defs id="SvgjsDefs1239"></defs><g id="SvgjsG1240" featureKey="2ou6gm-0" transform="matrix(0.6412757666065754,0,0,0.6412757666065754,17.5845349640224,10.793493349207399)" fill="#ffffff"><g xmlns="http://www.w3.org/2000/svg" display="none"><rect x="-900.877" y="-637.172" display="inline" fill="#FFFFFF" width="1370.931" height="1263.231"></rect></g><g xmlns="http://www.w3.org/2000/svg"><path d="M64.051,66.572c-0.481-0.078-0.973,0.077-1.319,0.423l-5.537,5.537c-1.922,1.922-4.476,2.981-7.194,2.981   s-5.273-1.059-7.195-2.981l-5.537-5.537c-0.346-0.347-0.841-0.504-1.319-0.423c-13.013,2.163-22.827,13.733-22.827,26.914   c0,0.836,0.678,1.514,1.514,1.514h70.727c0.836,0,1.514-0.678,1.514-1.514C86.878,80.305,77.064,68.735,64.051,66.572z    M16.199,91.971c0.697-10.823,8.794-20.135,19.489-22.273l4.975,4.975c2.494,2.495,5.81,3.868,9.336,3.868   c3.527,0,6.842-1.374,9.335-3.868l4.975-4.975c10.695,2.138,18.792,11.449,19.489,22.273H16.199z"></path><path d="M44.875,47.284L44.875,47.284c1.674,0.673,3.404,0.992,5.107,0.991c5.453,0,10.624-3.265,12.778-8.627   c2.826-7.036-0.599-15.059-7.636-17.884c-7.036-2.827-15.059,0.599-17.885,7.636c-1.369,3.408-1.328,7.146,0.113,10.524   C38.796,43.302,41.467,45.916,44.875,47.284z M40.05,30.529c1.68-4.181,5.712-6.727,9.965-6.727c1.327,0,2.677,0.248,3.982,0.772   c2.657,1.068,4.74,3.106,5.865,5.74c1.124,2.635,1.156,5.548,0.089,8.206c-2.205,5.488-8.457,8.159-13.947,5.954   c-2.657-1.068-4.74-3.106-5.865-5.74C39.014,36.1,38.983,33.187,40.05,30.529z"></path><path d="M22.227,29.854c-0.833-0.039-1.475,0.555-1.564,1.343c-0.275,2.421-0.247,4.874,0.082,7.29   c0.107,0.785,0.816,1.356,1.591,1.306c2.692-0.168,5.211,1.391,6.267,3.865c1.057,2.474,0.437,5.368-1.543,7.201   c-0.582,0.538-0.65,1.434-0.157,2.054c1.518,1.911,3.272,3.628,5.21,5.102c0.631,0.479,1.526,0.392,2.051-0.202   c1.789-2.019,4.666-2.702,7.166-1.7c2.498,1.003,4.104,3.488,3.998,6.184c-0.031,0.792,0.554,1.474,1.342,1.564   c1.102,0.126,2.211,0.188,3.321,0.188c1.326,0,2.654-0.09,3.972-0.269c0.785-0.107,1.355-0.802,1.306-1.592   c-0.163-2.692,1.39-5.211,3.865-6.267c2.477-1.056,5.369-0.436,7.2,1.543c0.537,0.582,1.433,0.651,2.054,0.157   c1.909-1.517,3.626-3.27,5.102-5.209c0.48-0.631,0.392-1.525-0.201-2.051c-2.02-1.789-2.704-4.668-1.701-7.166   c1.003-2.498,3.48-4.102,6.185-3.999c0.83,0.03,1.474-0.555,1.564-1.343c0.275-2.421,0.247-4.874-0.082-7.291   c-0.106-0.785-0.783-1.351-1.592-1.306c-2.672,0.163-5.21-1.389-6.266-3.865c-1.057-2.475-0.437-5.368,1.543-7.2   c0.582-0.537,0.651-1.433,0.158-2.053c-1.518-1.911-3.271-3.628-5.21-5.103c-0.631-0.48-1.526-0.393-2.051,0.201   c-1.789,2.02-4.673,2.702-7.166,1.701c-2.498-1.004-4.105-3.489-3.999-6.185c0.031-0.792-0.554-1.474-1.342-1.564   c-2.418-0.275-4.87-0.248-7.291,0.081c-0.785,0.106-1.356,0.801-1.307,1.592c0.163,2.692-1.39,5.211-3.864,6.267   c-2.475,1.058-5.369,0.437-7.201-1.543c-0.536-0.581-1.432-0.65-2.054-0.157c-1.91,1.518-3.627,3.271-5.101,5.209   c-0.48,0.631-0.392,1.525,0.201,2.051c2.019,1.789,2.703,4.669,1.7,7.166C27.409,28.351,24.891,29.942,22.227,29.854z    M31.222,26.984c1.298-3.229,0.684-6.89-1.494-9.521c0.852-1.013,1.782-1.961,2.778-2.836c2.675,2.12,6.351,2.652,9.549,1.288   c3.2-1.367,5.354-4.39,5.674-7.787c1.321-0.115,2.65-0.129,3.97-0.044c0.392,3.391,2.612,6.367,5.842,7.664   c3.228,1.296,6.889,0.682,9.521-1.495c1.013,0.853,1.961,1.782,2.836,2.779c-2.12,2.675-2.654,6.349-1.288,9.548   c1.366,3.201,4.388,5.355,7.786,5.675c0.114,1.319,0.13,2.647,0.045,3.969c-3.392,0.394-6.369,2.614-7.664,5.843   c-1.297,3.229-0.683,6.89,1.495,9.52c-0.853,1.013-1.783,1.961-2.779,2.836c-2.674-2.119-6.349-2.651-9.548-1.288   c-3.2,1.367-5.355,4.39-5.675,7.787c-1.32,0.114-2.647,0.13-3.97,0.044c-0.392-3.391-2.612-6.367-5.841-7.663   c-3.233-1.301-6.892-0.684-9.521,1.494c-1.013-0.852-1.962-1.782-2.837-2.778c2.12-2.677,2.653-6.35,1.288-9.549   s-4.388-5.354-7.786-5.674c-0.114-1.32-0.13-2.648-0.045-3.97C26.95,32.431,29.926,30.212,31.222,26.984z"></path></g></g><g id="SvgjsG1241" featureKey="kZnDdN-0" transform="matrix(2.227064985272702,0,0,2.227064985272702,86.10917432447512,20.083022660639394)" fill="#ffffff"><path d="M12.52 20 l-1.44 -3.3 l-7.48 0 l-1.44 3.3 l-1.76 0 l6.24 -14 l1.38 0 l6.26 14 l-1.76 0 z M4.22 15.3 l6.24 0 l-3.12 -7.12 z M17.54 6 l0 14 l-1.66 0 l0 -14 l1.66 0 z M40.52 6 l0 14 l-1.7 0 l0 -10.28 l-4.92 10.28 l-1.36 0 l-4.9 -10.26 l0 10.26 l-1.7 0 l0 -14 l1.64 0 l5.66 11.72 l5.64 -11.72 l1.64 0 z M49.78 5.8 c3.64 0 7.16 2.96 7.16 7.2 s-3.52 7.2 -7.16 7.2 c-3.66 0 -7.16 -2.96 -7.16 -7.2 s3.5 -7.2 7.16 -7.2 z M49.78 18.62 c2.74 0 5.44 -2.32 5.44 -5.62 s-2.7 -5.62 -5.44 -5.62 c-2.76 0 -5.44 2.32 -5.44 5.62 s2.68 5.62 5.44 5.62 z M68.8 6 l1.66 0 l0 14 l-1.28 0 l-8.48 -10.96 l0 10.96 l-1.66 0 l0 -14 l1.28 0 l8.48 10.98 l0 -10.98 z M81.9 6 l0 1.56 l-3.88 0 l0 12.44 l-1.66 0 l0 -12.44 l-3.9 0 l0 -1.56 l9.44 0 z M95.46 18.5 c-1.28 1.1 -2.9 1.7 -4.7 1.7 c-3.64 0 -7.16 -2.96 -7.16 -7.2 s3.52 -7.2 7.16 -7.2 c1.78 0 3.38 0.6 4.64 1.66 l-1.02 1.16 c-0.98 -0.78 -2.24 -1.24 -3.5 -1.24 c-2.86 0 -5.56 2.32 -5.56 5.62 s2.7 5.62 5.56 5.62 c1.28 0 2.56 -0.48 3.54 -1.28 z M99.02 18.44 l6.28 0 l0 1.56 l-7.94 0 l0 -14 l1.66 0 l0 12.44 z M118.62 20 l-1.44 -3.3 l-7.48 0 l-1.44 3.3 l-1.76 0 l6.24 -14 l1.38 0 l6.26 14 l-1.76 0 z M110.32 15.3 l6.24 0 l-3.12 -7.12 z M123.64 6 l0 14 l-1.66 0 l0 -14 l1.66 0 z M136.32 20 l-1.8 0 l-3.54 -5.04 l-0.38 0 l-2.9 0 l0 5.04 l-1.66 0 l0 -14 l4.56 0 c3.14 0 4.96 1.92 4.96 4.52 c0 2 -1.08 3.56 -3 4.16 z M127.7 7.56 l0 5.92 l2.86 0 c2.02 0 3.34 -1.04 3.34 -2.96 c0 -1.94 -1.32 -2.96 -3.34 -2.96 l-2.86 0 z"></path></g>
			</g>
		</svg>
	